<svg width="1299" height="172" viewBox="0 0 1299 172" fill="none" xmlns="http://www.w3.org/2000/svg">
<path fill-rule="evenodd" clip-rule="evenodd" d="M0.621094 171.788V0.625732H38.5049V171.788H0.621094Z" fill="#3D4457"/>
<path fill-rule="evenodd" clip-rule="evenodd" d="M412.607 171.788V0.625732H450.491V171.788H412.607Z" fill="#3D4457"/>
<path fill-rule="evenodd" clip-rule="evenodd" d="M472.343 99.8732C472.343 60.1616 504.546 27.9579 544.258 27.9579C583.966 27.9579 616.173 60.1428 616.173 99.8732V118.815H515.985C522.094 127.914 532.479 133.905 544.258 133.905H597.232V171.789H544.258C504.546 171.789 472.343 139.585 472.343 99.8732ZM515.985 80.9313H572.536C566.428 71.8298 556.041 65.8417 544.258 65.8417C532.479 65.8417 522.094 71.8321 515.985 80.9313Z" fill="#3D4457"/>
<path fill-rule="evenodd" clip-rule="evenodd" d="M137.265 0.625732V110.958C137.265 123.626 147.543 133.904 160.211 133.904H174.189C186.857 133.904 197.136 123.626 197.136 110.958V91.7266H235.02V110.958C235.02 144.548 207.78 171.788 174.189 171.788H160.211C126.621 171.788 99.3809 144.548 99.3809 110.958V0.625732H137.265Z" fill="#3D4457"/>
<path fill-rule="evenodd" clip-rule="evenodd" d="M176.321 73.4242H60.3398V35.5403H176.321V73.4242Z" fill="#3D4457"/>
<path fill-rule="evenodd" clip-rule="evenodd" d="M293.003 0.625732V110.958C293.003 123.626 303.282 133.904 315.95 133.904H329.928C342.595 133.904 352.874 123.626 352.874 110.958V91.7266H390.758V110.958C390.758 144.548 363.518 171.788 329.928 171.788H315.95C282.359 171.788 255.119 144.548 255.119 110.958V0.625732H293.003Z" fill="#3D4457"/>
<path fill-rule="evenodd" clip-rule="evenodd" d="M332.059 73.4242H216.078V35.5403H332.059V73.4242Z" fill="#3D4457"/>
<path fill-rule="evenodd" clip-rule="evenodd" d="M743.436 88.0116C730.768 88.0116 720.489 98.2903 720.489 110.958C720.489 123.626 730.768 133.905 743.436 133.905H782.766V171.789H743.436C709.845 171.789 682.605 144.549 682.605 110.958C682.605 77.3676 709.845 50.1278 743.436 50.1278H782.766V88.0116H743.436Z" fill="#3D4457"/>
<path fill-rule="evenodd" clip-rule="evenodd" d="M1298.14 0.625732V171.788H1220.41C1186.82 171.788 1159.58 144.548 1159.58 110.958C1159.58 77.3673 1186.82 50.1275 1220.41 50.1275H1260.26V0.625732H1298.14ZM1260.26 133.904V88.0113H1220.41C1207.74 88.0113 1197.46 98.2899 1197.46 110.958C1197.46 123.626 1207.74 133.904 1220.41 133.904H1260.26Z" fill="#3D4457"/>
<path fill-rule="evenodd" clip-rule="evenodd" d="M1060.39 46.8837V110.957C1060.39 123.625 1070.67 133.904 1083.34 133.904C1096.01 133.904 1106.29 123.625 1106.29 110.957V46.8837H1144.17V110.957C1144.17 144.548 1116.93 171.788 1083.34 171.788C1049.75 171.788 1022.51 144.548 1022.51 110.957V46.8837H1060.39Z" fill="#3D4457"/>
<path fill-rule="evenodd" clip-rule="evenodd" d="M804.631 171.788V0.625732H842.515V171.788H804.631Z" fill="#3D4457"/>
<path fill-rule="evenodd" clip-rule="evenodd" d="M917.34 88.0116C904.667 88.0116 894.394 98.2852 894.394 110.958C894.394 123.631 904.667 133.905 917.34 133.905H947.991C960.664 133.905 970.938 123.631 970.938 110.958C970.938 98.2851 960.664 88.0116 947.991 88.0116H917.34ZM856.51 110.958C856.51 77.3625 883.744 50.1278 917.34 50.1278H947.991C981.587 50.1278 1008.82 77.3626 1008.82 110.958C1008.82 144.554 981.587 171.789 947.991 171.789H917.34C883.744 171.789 856.51 144.554 856.51 110.958Z" fill="#3D4457"/>
</svg>
