<svg width="373" height="373" viewBox="0 0 373 373" fill="none" xmlns="http://www.w3.org/2000/svg">
<rect x="97.9178" y="106.697" width="181.708" height="179.495" fill="white"/>
<rect x="97.9178" y="106.697" width="181.708" height="179.495" stroke="#181B23" stroke-width="3.06608"/>
<rect x="85.6532" y="94.4329" width="181.709" height="179.495" fill="white"/>
<rect x="85.6532" y="94.4329" width="181.709" height="179.495" stroke="#181B23" stroke-width="3.06608"/>
<circle cx="122.07" cy="130.85" r="19.9673" transform="rotate(-90 122.07 130.85)" stroke="#0D2037" stroke-width="3.06608"/>
<circle cx="122.07" cy="130.85" r="9.883" transform="rotate(-90 122.07 130.85)" stroke="#0D2037" stroke-width="3.06608"/>
<path d="M96.3848 130.85C96.3848 137.662 99.0909 144.195 103.908 149.012C108.725 153.829 115.258 156.535 122.07 156.535C128.882 156.535 135.416 153.829 140.233 149.012C145.049 144.195 147.756 137.662 147.756 130.85L136.962 130.85C136.962 134.799 135.393 138.587 132.601 141.38C129.808 144.173 126.02 145.742 122.07 145.742C118.121 145.742 114.333 144.173 111.54 141.38C108.747 138.587 107.178 134.799 107.178 130.85L96.3848 130.85Z" fill="#F24836"/>
<circle cx="179.115" cy="130.85" r="22.4678" stroke="#0D2037" stroke-width="3.06608"/>
<mask id="mask0_1107_1010" style="mask-type:alpha" maskUnits="userSpaceOnUse" x="155" y="106" width="49" height="49">
<circle cx="179.115" cy="130.85" r="24.0009" fill="#EE8787"/>
</mask>
<g mask="url(#mask0_1107_1010)">
<line x1="137.483" y1="131.999" x2="179.872" y2="89.6102" stroke="#0D2037" stroke-width="3.06608"/>
<line x1="141.522" y1="136.038" x2="183.911" y2="93.6489" stroke="#0D2037" stroke-width="3.06608"/>
<line x1="145.561" y1="140.076" x2="187.949" y2="97.6874" stroke="#0D2037" stroke-width="3.06608"/>
<line x1="149.6" y1="144.115" x2="191.988" y2="101.726" stroke="#0D2037" stroke-width="3.06608"/>
<line x1="153.638" y1="148.153" x2="196.026" y2="105.765" stroke="#0D2037" stroke-width="3.06608"/>
<line x1="157.677" y1="152.192" x2="200.065" y2="109.803" stroke="#0D2037" stroke-width="3.06608"/>
<line x1="161.716" y1="156.231" x2="204.104" y2="113.842" stroke="#0D2037" stroke-width="3.06608"/>
<line x1="165.754" y1="160.269" x2="208.143" y2="117.881" stroke="#0D2037" stroke-width="3.06608"/>
<line x1="169.793" y1="164.308" x2="212.182" y2="121.919" stroke="#0D2037" stroke-width="3.06608"/>
<line x1="173.831" y1="168.346" x2="216.22" y2="125.958" stroke="#0D2037" stroke-width="3.06608"/>
</g>
<path d="M213.758 131.609L255.233 155.555L255.233 107.663L213.758 131.609Z" fill="#0D2037"/>
<path d="M210.475 130.09L251.95 154.036L251.95 106.144L210.475 130.09Z" fill="#EE8787"/>
<path d="M142.187 176.288L131.938 176.288L131.938 166.04L142.187 166.04L142.187 176.288Z" stroke="#0D2037" stroke-width="3.06608"/>
<path d="M142.187 193.323L131.938 193.323L131.938 183.075L142.187 183.075L142.187 193.323Z" stroke="#0D2037" stroke-width="3.06608"/>
<path d="M142.187 210.357L131.938 210.357L131.938 200.109L142.187 200.109L142.187 210.357Z" stroke="#0D2037" stroke-width="3.06608"/>
<path d="M125.176 193.323L114.928 193.323L114.928 183.075L125.176 183.075L125.176 193.323Z" stroke="#0D2037" stroke-width="3.06608"/>
<path d="M125.176 210.357L114.928 210.357L114.928 200.109L125.176 200.109L125.176 210.357Z" stroke="#0D2037" stroke-width="3.06608"/>
<path d="M108.166 193.323L97.918 193.323L97.918 183.075L108.166 183.075L108.166 193.323Z" stroke="#0D2037" stroke-width="3.06608"/>
<path d="M108.166 210.357L97.918 210.357L97.918 200.109L108.166 200.109L108.166 210.357Z" stroke="#0D2037" stroke-width="3.06608"/>
<path d="M125.176 176.288L114.928 176.288L114.928 166.04L125.176 166.04L125.176 176.288Z" stroke="#0D2037" stroke-width="3.06608"/>
<path d="M108.166 176.288L97.918 176.288L97.918 166.04L108.166 166.04L108.166 176.288Z" stroke="#0D2037" stroke-width="3.06608"/>
<path d="M198.836 172.118H159.063V211.891H198.836V172.118Z" fill="#EE8787"/>
<path d="M190.543 166.04V202.746H153.837V166.04H190.543Z" stroke="#0D2037" stroke-width="3.06608"/>
<mask id="mask1_1107_1010" style="mask-type:alpha" maskUnits="userSpaceOnUse" x="152" y="164" width="41" height="41">
<path d="M192.076 164.507H152.304V204.279H192.076V164.507Z" fill="#0D2037"/>
</mask>
<g mask="url(#mask1_1107_1010)">
<line x1="131.613" y1="185.693" x2="181.539" y2="135.767" stroke="#0D2037" stroke-width="3.06608"/>
<line x1="136.37" y1="190.449" x2="186.296" y2="140.524" stroke="#0D2037" stroke-width="3.06608"/>
<line x1="141.127" y1="195.206" x2="191.052" y2="145.28" stroke="#0D2037" stroke-width="3.06608"/>
<line x1="145.884" y1="199.962" x2="195.809" y2="150.037" stroke="#0D2037" stroke-width="3.06608"/>
<line x1="150.64" y1="204.719" x2="200.565" y2="154.794" stroke="#0D2037" stroke-width="3.06608"/>
<line x1="155.397" y1="209.476" x2="205.323" y2="159.55" stroke="#0D2037" stroke-width="3.06608"/>
<line x1="160.153" y1="214.233" x2="210.079" y2="164.307" stroke="#0D2037" stroke-width="3.06608"/>
<line x1="164.91" y1="218.989" x2="214.836" y2="169.064" stroke="#0D2037" stroke-width="3.06608"/>
<line x1="169.667" y1="223.746" x2="219.592" y2="173.821" stroke="#0D2037" stroke-width="3.06608"/>
<line x1="174.424" y1="228.503" x2="224.349" y2="178.577" stroke="#0D2037" stroke-width="3.06608"/>
</g>
<path d="M207.421 164.507L254.805 211.891H207.421V164.507Z" fill="#419BB4"/>
<path d="M253.271 166.04V208.189L211.122 166.04H253.271Z" stroke="#071729" stroke-width="3.06608"/>
<path d="M245.398 173.914V200.316L218.996 173.914H245.398Z" stroke="#071729" stroke-width="3.06608"/>
<path d="M237.755 181.557V192.672L226.64 181.557H237.755Z" stroke="#071729" stroke-width="3.06608"/>
<circle cx="101.715" cy="250.105" r="5.33118" transform="rotate(-90 101.715 250.105)" fill="#419BB4"/>
<circle cx="134.886" cy="250.105" r="5.33118" transform="rotate(-90 134.886 250.105)" fill="#419BB4"/>
<circle cx="118.301" cy="232.954" r="5.33118" transform="rotate(-90 118.301 232.954)" fill="#419BB4"/>
<circle cx="118.301" cy="250.105" r="5.33118" transform="rotate(-90 118.301 250.105)" fill="#419BB4"/>
<circle cx="101.715" cy="232.954" r="5.33118" transform="rotate(-90 101.715 232.954)" fill="#419BB4"/>
<circle cx="134.886" cy="232.954" r="5.33118" transform="rotate(-90 134.886 232.954)" fill="#419BB4"/>
<path fill-rule="evenodd" clip-rule="evenodd" d="M155.549 233.021L168.707 233.021V219.862H181.728L181.728 233.021H194.887V246.042H181.728V259.201H168.707V246.042L155.549 246.042L155.549 233.021Z" fill="#EE8787"/>
<path fill-rule="evenodd" clip-rule="evenodd" d="M159.546 237.017L172.704 237.017V223.859H185.726L185.726 237.017H198.884V250.039H185.726V263.197H172.704V250.039L159.546 250.038L159.546 237.017Z" stroke="#0D2037" stroke-width="3.06608"/>
<path d="M235.422 220.321C239.617 220.321 243.717 221.565 247.205 223.895C250.693 226.226 253.411 229.538 255.016 233.414C256.622 237.289 257.042 241.553 256.223 245.667C255.405 249.781 253.385 253.56 250.419 256.526C247.453 259.492 243.674 261.512 239.56 262.331C235.446 263.149 231.182 262.729 227.306 261.124C223.431 259.519 220.119 256.8 217.788 253.312C215.458 249.825 214.214 245.724 214.214 241.53L235.422 241.53L235.422 220.321Z" fill="#419BB4"/>
<path d="M235.422 225.623C238.568 225.623 241.643 226.556 244.259 228.304C246.875 230.052 248.914 232.536 250.118 235.443C251.321 238.349 251.636 241.547 251.023 244.633C250.409 247.718 248.894 250.553 246.669 252.777C244.445 255.002 241.611 256.517 238.525 257.13C235.44 257.744 232.241 257.429 229.335 256.225C226.428 255.021 223.944 252.983 222.196 250.367C220.449 247.751 219.516 244.676 219.516 241.53L235.422 241.53L235.422 225.623Z" fill="#F24836"/>
<path d="M235.422 233.683C236.974 233.683 238.491 234.143 239.782 235.005C241.072 235.868 242.078 237.093 242.672 238.527C243.266 239.961 243.421 241.539 243.118 243.061C242.816 244.583 242.068 245.981 240.971 247.079C239.873 248.176 238.475 248.923 236.953 249.226C235.431 249.529 233.853 249.374 232.419 248.78C230.985 248.186 229.76 247.18 228.898 245.89C228.035 244.599 227.575 243.082 227.575 241.53L235.422 241.53L235.422 233.683Z" fill="#EBEBD3"/>
<circle cx="235.422" cy="241.53" r="14.3733" transform="rotate(-90 235.422 241.53)" stroke="#0D2037" stroke-width="3.06608"/>
<path d="M305.04 134.08L293.102 154.758H316.979L305.04 134.08Z" fill="#F24836"/>
<path d="M305.04 109.979L293.102 130.657H316.979L305.04 109.979Z" fill="#F24836"/>
<path d="M305.04 85.8788L293.102 106.557H316.979L305.04 85.8788Z" fill="#F24836"/>
<path d="M305.04 61.7783L293.102 82.4564H316.979L305.04 61.7783Z" fill="#F24836"/>
<path d="M34.326 188.674C43.1098 188.674 51.5338 185.185 57.7449 178.974C63.956 172.763 67.4453 164.339 67.4453 155.555C67.4453 146.771 63.956 138.347 57.7449 132.136C51.5338 125.925 43.1098 122.436 34.326 122.436L34.326 141.82C37.9687 141.82 41.4622 143.267 44.038 145.843C46.6137 148.419 48.0608 151.912 48.0608 155.555C48.0608 159.197 46.6137 162.691 44.038 165.267C41.4622 167.842 37.9687 169.29 34.326 169.29L34.326 188.674Z" fill="url(#paint0_linear_1107_1010)"/>
<circle cx="308.68" cy="268.19" r="3.57657" transform="rotate(-180 308.68 268.19)" stroke="#0D2037" stroke-width="2.45286"/>
<circle cx="294.651" cy="268.19" r="3.57657" transform="rotate(-180 294.651 268.19)" stroke="#0D2037" stroke-width="2.45286"/>
<circle cx="294.651" cy="281.986" r="3.57657" transform="rotate(-180 294.651 281.986)" stroke="#0D2037" stroke-width="2.45286"/>
<circle cx="308.68" cy="281.986" r="3.57657" transform="rotate(-180 308.68 281.986)" stroke="#0D2037" stroke-width="2.45286"/>
<circle cx="237.585" cy="74.8886" r="8.49235" fill="#0D2037"/>
<circle cx="235.562" cy="72.8652" r="8.49235" fill="#F24836"/>
<path d="M131.994 81.1268L143.627 69.4941M131.994 69.4941L143.627 81.1268" stroke="#0D2037" stroke-width="2.91318" stroke-linecap="round"/>
<path d="M131.994 60.237L143.627 48.6044M131.994 48.6044L143.627 60.237" stroke="#0D2037" stroke-width="2.91318" stroke-linecap="round"/>
<path d="M12.1025 248.242L30.4826 229.862M12.1025 229.862L30.4826 248.242" stroke="#0D2037" stroke-width="4.60292" stroke-linecap="round"/>
<path d="M361.043 222.01H336.579V246.474H361.043V222.01Z" fill="#0D2037"/>
<path d="M358.282 219.248H333.817V243.712H358.282V219.248Z" fill="#EE8787"/>
<path d="M350.362 174.674C353.195 174.674 355.911 175.799 357.914 177.802C359.918 179.805 361.043 182.522 361.043 185.355C361.043 188.188 359.918 190.904 357.914 192.908C355.911 194.911 353.195 196.036 350.362 196.036L350.362 185.355L350.362 174.674Z" fill="#419BB4"/>
<circle cx="222.923" cy="22.8142" r="4.60292" fill="#F24836"/>
<circle cx="243.176" cy="22.8142" r="4.60292" fill="#F24836"/>
<circle cx="263.429" cy="22.8142" r="4.60292" fill="#F24836"/>
<circle cx="51.7611" cy="272.639" r="4.60292" transform="rotate(-90 51.7611 272.639)" fill="#69748F"/>
<circle cx="51.7611" cy="252.386" r="4.60292" transform="rotate(-90 51.7611 252.386)" fill="#69748F"/>
<circle cx="51.7611" cy="232.133" r="4.60292" transform="rotate(-90 51.7611 232.133)" fill="#69748F"/>
<rect x="198.51" y="299.744" width="20.7152" height="20.7152" stroke="#0D2037" stroke-width="3.06608" stroke-dasharray="11.04 11.04"/>
<rect x="168.483" y="299.744" width="20.7152" height="20.7152" stroke="#0D2037" stroke-width="3.06608" stroke-dasharray="11.04 11.04"/>
<path d="M114.951 298.518L100.719 323.169H129.183L114.951 298.518Z" fill="#EE8787"/>
<path d="M114.95 307.053L107.734 319.55H122.165L114.95 307.053Z" fill="#181B23"/>
<path d="M109.607 14.28L95.375 38.9303H123.839L109.607 14.28Z" fill="#EE8787"/>
<path d="M109.606 22.8142L102.391 35.3118H116.822L109.606 22.8142Z" fill="#181B23"/>
<path d="M212.16 66.3641H176.868C172.167 66.3641 168.356 70.1735 168.356 74.8725C168.356 79.5715 172.167 83.3809 176.868 83.3809H212.16C216.86 83.3809 220.671 79.5715 220.671 74.8725C220.671 70.1735 216.86 66.3641 212.16 66.3641Z" fill="#419BB4"/>
<mask id="path-88-inside-1_1107_1010" fill="white">
<path d="M198.434 331.503C198.434 339.097 201.451 346.381 206.821 351.752C212.191 357.122 219.475 360.139 227.07 360.139C234.665 360.139 241.948 357.122 247.319 351.752C252.689 346.381 255.706 339.098 255.706 331.503L227.07 331.503L198.434 331.503Z"/>
</mask>
<path d="M198.434 331.503C198.434 339.097 201.451 346.381 206.821 351.752C212.191 357.122 219.475 360.139 227.07 360.139C234.665 360.139 241.948 357.122 247.319 351.752C252.689 346.381 255.706 339.098 255.706 331.503L227.07 331.503L198.434 331.503Z" stroke="#3D4457" stroke-width="6.13215" mask="url(#path-88-inside-1_1107_1010)"/>
<mask id="mask2_1107_1010" style="mask-type:alpha" maskUnits="userSpaceOnUse" x="198" y="331" width="58" height="30">
<path d="M198.434 331.503C198.434 339.097 201.451 346.381 206.821 351.752C212.191 357.122 219.475 360.139 227.07 360.139C234.665 360.139 241.948 357.122 247.319 351.752C252.689 346.381 255.706 339.098 255.706 331.503L227.07 331.503L198.434 331.503Z" fill="#D9D9D9"/>
</mask>
<g mask="url(#mask2_1107_1010)">
<line x1="276.153" y1="337.792" x2="225.578" y2="388.367" stroke="#3D4457" stroke-width="3.06608"/>
<line x1="271.334" y1="332.973" x2="220.759" y2="383.548" stroke="#3D4457" stroke-width="3.06608"/>
<line x1="266.516" y1="328.154" x2="215.94" y2="378.73" stroke="#3D4457" stroke-width="3.06608"/>
<line x1="261.696" y1="323.336" x2="211.121" y2="373.911" stroke="#3D4457" stroke-width="3.06608"/>
<line x1="256.879" y1="318.517" x2="206.304" y2="369.093" stroke="#3D4457" stroke-width="3.06608"/>
<line x1="252.06" y1="313.699" x2="201.484" y2="364.274" stroke="#3D4457" stroke-width="3.06608"/>
<line x1="247.241" y1="308.88" x2="196.666" y2="359.455" stroke="#3D4457" stroke-width="3.06608"/>
<line x1="242.423" y1="304.061" x2="191.848" y2="354.637" stroke="#3D4457" stroke-width="3.06608"/>
<line x1="237.604" y1="299.243" x2="187.028" y2="349.818" stroke="#3D4457" stroke-width="3.06608"/>
<line x1="232.785" y1="294.424" x2="182.21" y2="345" stroke="#3D4457" stroke-width="3.06608"/>
</g>
<path d="M68.0472 62.7458H54.4971L44.916 72.3269V85.8771L54.4971 95.4581H68.0472L77.6283 85.8771V72.3269L68.0472 62.7458Z" fill="#0D2037"/>
<path d="M65.3636 60.062H51.8135L42.2324 69.6431V83.1932L51.8135 92.7743H65.3636L74.9447 83.1932V69.6431L65.3636 60.062Z" fill="#EE8787"/>
<defs>
<linearGradient id="paint0_linear_1107_1010" x1="50.8857" y1="188.674" x2="50.8857" y2="122.436" gradientUnits="userSpaceOnUse">
<stop stop-color="#EE8787"/>
<stop offset="1" stop-color="#419BB4"/>
</linearGradient>
</defs>
</svg>
