<svg width="372" height="372" viewBox="0 0 372 372" fill="none" xmlns="http://www.w3.org/2000/svg">
<rect x="97.5369" y="105.801" width="181.708" height="179.495" fill="white"/>
<rect x="97.5369" y="105.801" width="181.708" height="179.495" stroke="#181B23" stroke-width="3.06608"/>
<rect x="85.2733" y="93.5369" width="181.707" height="179.495" fill="white"/>
<rect x="85.2733" y="93.5369" width="181.707" height="179.495" stroke="#181B23" stroke-width="3.06608"/>
<circle cx="121.69" cy="129.954" r="19.9673" transform="rotate(-90 121.69 129.954)" stroke="#0D2037" stroke-width="3.06608"/>
<circle cx="121.692" cy="129.954" r="9.883" transform="rotate(-90 121.692 129.954)" stroke="#0D2037" stroke-width="3.06608"/>
<path d="M96.0039 129.954C96.0039 136.766 98.71 143.299 103.527 148.116C108.344 152.933 114.877 155.639 121.689 155.639C128.502 155.639 135.035 152.933 139.852 148.116C144.669 143.299 147.375 136.766 147.375 129.954L136.581 129.954C136.581 133.903 135.012 137.691 132.22 140.484C129.427 143.277 125.639 144.846 121.689 144.846C117.74 144.846 113.952 143.277 111.159 140.484C108.366 137.691 106.797 133.903 106.797 129.954L96.0039 129.954Z" fill="#F24836"/>
<circle cx="178.733" cy="129.954" r="22.4678" stroke="#0D2037" stroke-width="3.06608"/>
<mask id="mask0_1252_13782" style="mask-type:alpha" maskUnits="userSpaceOnUse" x="154" y="105" width="49" height="49">
<circle cx="178.733" cy="129.954" r="24.0009" fill="#EE8787"/>
</mask>
<g mask="url(#mask0_1252_13782)">
<line x1="137.1" y1="131.103" x2="179.488" y2="88.7143" stroke="#0D2037" stroke-width="3.06608"/>
<line x1="141.141" y1="135.142" x2="183.529" y2="92.7529" stroke="#0D2037" stroke-width="3.06608"/>
<line x1="145.178" y1="139.18" x2="187.566" y2="96.7914" stroke="#0D2037" stroke-width="3.06608"/>
<line x1="149.217" y1="143.219" x2="191.605" y2="100.83" stroke="#0D2037" stroke-width="3.06608"/>
<line x1="153.256" y1="147.258" x2="195.645" y2="104.869" stroke="#0D2037" stroke-width="3.06608"/>
<line x1="157.293" y1="151.296" x2="199.682" y2="108.907" stroke="#0D2037" stroke-width="3.06608"/>
<line x1="161.332" y1="155.335" x2="203.721" y2="112.946" stroke="#0D2037" stroke-width="3.06608"/>
<line x1="165.371" y1="159.373" x2="207.76" y2="116.985" stroke="#0D2037" stroke-width="3.06608"/>
<line x1="169.41" y1="163.412" x2="211.799" y2="121.023" stroke="#0D2037" stroke-width="3.06608"/>
<line x1="173.449" y1="167.45" x2="215.838" y2="125.062" stroke="#0D2037" stroke-width="3.06608"/>
</g>
<path d="M213.377 130.713L254.852 154.659L254.852 106.767L213.377 130.713Z" fill="#0D2037"/>
<path d="M210.094 129.195L251.569 153.14L251.569 105.249L210.094 129.195Z" fill="#EE8787"/>
<path d="M141.805 175.392L131.557 175.392L131.557 165.144L141.805 165.144L141.805 175.392Z" stroke="#0D2037" stroke-width="3.06608"/>
<path d="M141.805 192.427L131.557 192.427L131.557 182.178L141.805 182.178L141.805 192.427Z" stroke="#0D2037" stroke-width="3.06608"/>
<path d="M141.805 209.461L131.557 209.461L131.557 199.213L141.805 199.213L141.805 209.461Z" stroke="#0D2037" stroke-width="3.06608"/>
<path d="M124.795 192.427L114.547 192.427L114.547 182.178L124.795 182.178L124.795 192.427Z" stroke="#0D2037" stroke-width="3.06608"/>
<path d="M124.795 209.461L114.547 209.461L114.547 199.213L124.795 199.213L124.795 209.461Z" stroke="#0D2037" stroke-width="3.06608"/>
<path d="M107.785 192.427L97.5371 192.427L97.5371 182.178L107.785 182.178L107.785 192.427Z" stroke="#0D2037" stroke-width="3.06608"/>
<path d="M107.785 209.461L97.5371 209.461L97.5371 199.213L107.785 199.213L107.785 209.461Z" stroke="#0D2037" stroke-width="3.06608"/>
<path d="M124.795 175.392L114.547 175.392L114.547 165.144L124.795 165.144L124.795 175.392Z" stroke="#0D2037" stroke-width="3.06608"/>
<path d="M107.785 175.392L97.5371 175.392L97.5371 165.144L107.785 165.144L107.785 175.392Z" stroke="#0D2037" stroke-width="3.06608"/>
<path d="M198.454 171.222H158.682V210.995H198.454V171.222Z" fill="#EE8787"/>
<path d="M190.163 165.144V201.85H153.457V165.144H190.163Z" stroke="#0D2037" stroke-width="3.06608"/>
<mask id="mask1_1252_13782" style="mask-type:alpha" maskUnits="userSpaceOnUse" x="151" y="163" width="41" height="41">
<path d="M191.696 163.611H151.924V203.383H191.696V163.611Z" fill="#0D2037"/>
</mask>
<g mask="url(#mask1_1252_13782)">
<line x1="131.232" y1="184.797" x2="181.158" y2="134.871" stroke="#0D2037" stroke-width="3.06608"/>
<line x1="135.99" y1="189.553" x2="185.916" y2="139.628" stroke="#0D2037" stroke-width="3.06608"/>
<line x1="140.746" y1="194.31" x2="190.672" y2="144.384" stroke="#0D2037" stroke-width="3.06608"/>
<line x1="145.504" y1="199.066" x2="195.429" y2="149.141" stroke="#0D2037" stroke-width="3.06608"/>
<line x1="150.26" y1="203.823" x2="200.185" y2="153.898" stroke="#0D2037" stroke-width="3.06608"/>
<line x1="155.016" y1="208.58" x2="204.941" y2="158.655" stroke="#0D2037" stroke-width="3.06608"/>
<line x1="159.773" y1="213.337" x2="209.699" y2="163.411" stroke="#0D2037" stroke-width="3.06608"/>
<line x1="164.531" y1="218.093" x2="214.457" y2="168.168" stroke="#0D2037" stroke-width="3.06608"/>
<line x1="169.287" y1="222.85" x2="219.213" y2="172.925" stroke="#0D2037" stroke-width="3.06608"/>
<line x1="174.043" y1="227.607" x2="223.968" y2="177.681" stroke="#0D2037" stroke-width="3.06608"/>
</g>
<path d="M207.039 163.611L254.423 210.995H207.039V163.611Z" fill="#419BB4"/>
<path d="M252.89 165.144V207.293L210.74 165.144H252.89Z" stroke="#071729" stroke-width="3.06608"/>
<path d="M245.016 173.018V199.42L218.613 173.018H245.016Z" stroke="#071729" stroke-width="3.06608"/>
<path d="M237.373 180.661V191.777L226.258 180.661H237.373Z" stroke="#071729" stroke-width="3.06608"/>
<circle cx="101.335" cy="249.209" r="5.33118" transform="rotate(-90 101.335 249.209)" fill="#419BB4"/>
<circle cx="134.505" cy="249.209" r="5.33118" transform="rotate(-90 134.505 249.209)" fill="#419BB4"/>
<circle cx="117.921" cy="232.058" r="5.33118" transform="rotate(-90 117.921 232.058)" fill="#419BB4"/>
<circle cx="117.921" cy="249.209" r="5.33118" transform="rotate(-90 117.921 249.209)" fill="#419BB4"/>
<circle cx="101.335" cy="232.058" r="5.33118" transform="rotate(-90 101.335 232.058)" fill="#419BB4"/>
<circle cx="134.505" cy="232.058" r="5.33118" transform="rotate(-90 134.505 232.058)" fill="#419BB4"/>
<path fill-rule="evenodd" clip-rule="evenodd" d="M155.166 232.125L168.325 232.125V218.966H181.346L181.346 232.125H194.504V245.146H181.346V258.304H168.325V245.146L155.166 245.146L155.166 232.125Z" fill="#EE8787"/>
<path fill-rule="evenodd" clip-rule="evenodd" d="M159.162 236.121L172.321 236.121V222.963H185.342L185.342 236.121H198.5V249.143H185.342V262.301H172.321V249.143L159.162 249.143L159.162 236.121Z" stroke="#0D2037" stroke-width="3.06608"/>
<path d="M235.041 219.425C239.235 219.425 243.336 220.669 246.823 222.999C250.311 225.33 253.029 228.642 254.635 232.517C256.24 236.393 256.66 240.657 255.841 244.771C255.023 248.885 253.003 252.664 250.037 255.63C247.071 258.596 243.292 260.616 239.178 261.435C235.064 262.253 230.8 261.833 226.924 260.228C223.049 258.622 219.737 255.904 217.406 252.416C215.076 248.929 213.832 244.828 213.832 240.634L235.041 240.634L235.041 219.425Z" fill="#419BB4"/>
<path d="M235.039 224.727C238.185 224.727 241.26 225.66 243.876 227.408C246.492 229.156 248.531 231.64 249.735 234.547C250.939 237.453 251.254 240.651 250.64 243.737C250.026 246.822 248.511 249.657 246.287 251.881C244.062 254.106 241.228 255.621 238.142 256.234C235.057 256.848 231.859 256.533 228.952 255.329C226.046 254.125 223.561 252.087 221.814 249.471C220.066 246.855 219.133 243.78 219.133 240.634L235.039 240.634L235.039 224.727Z" fill="#F24836"/>
<path d="M235.038 232.787C236.59 232.787 238.108 233.247 239.398 234.109C240.688 234.971 241.694 236.197 242.288 237.631C242.882 239.065 243.037 240.642 242.735 242.165C242.432 243.687 241.685 245.085 240.587 246.182C239.49 247.28 238.091 248.027 236.569 248.33C235.047 248.633 233.469 248.477 232.035 247.883C230.602 247.289 229.376 246.284 228.514 244.993C227.652 243.703 227.191 242.186 227.191 240.634L235.038 240.634L235.038 232.787Z" fill="#EBEBD3"/>
<circle cx="235.039" cy="240.634" r="14.3733" transform="rotate(-90 235.039 240.634)" stroke="#0D2037" stroke-width="3.06608"/>
<path d="M304.659 133.184L292.721 153.862H316.598L304.659 133.184Z" fill="#F24836"/>
<path d="M304.659 109.083L292.721 129.761H316.598L304.659 109.083Z" fill="#F24836"/>
<path d="M304.659 84.9827L292.721 105.661H316.598L304.659 84.9827Z" fill="#F24836"/>
<path d="M304.659 60.8823L292.721 81.5604H316.598L304.659 60.8823Z" fill="#F24836"/>
<path d="M33.9452 187.778C42.7289 187.778 51.153 184.289 57.364 178.078C63.5751 171.867 67.0645 163.443 67.0645 154.659C67.0645 145.875 63.5751 137.451 57.364 131.24C51.153 125.029 42.729 121.54 33.9452 121.54L33.9452 140.924C37.5879 140.924 41.0813 142.371 43.6571 144.947C46.2329 147.523 47.6799 151.016 47.6799 154.659C47.6799 158.301 46.2329 161.795 43.6571 164.371C41.0813 166.946 37.5879 168.394 33.9452 168.394L33.9452 187.778Z" fill="url(#paint0_linear_1252_13782)"/>
<circle cx="308.298" cy="267.295" r="3.57657" transform="rotate(-180 308.298 267.295)" stroke="white" stroke-width="2.45286"/>
<circle cx="294.269" cy="267.295" r="3.57657" transform="rotate(-180 294.269 267.295)" stroke="white" stroke-width="2.45286"/>
<circle cx="294.269" cy="281.09" r="3.57657" transform="rotate(-180 294.269 281.09)" stroke="white" stroke-width="2.45286"/>
<circle cx="308.298" cy="281.09" r="3.57657" transform="rotate(-180 308.298 281.09)" stroke="white" stroke-width="2.45286"/>
<circle cx="237.205" cy="73.9926" r="8.49235" fill="#214776"/>
<circle cx="235.182" cy="71.9692" r="8.49235" fill="#F24836"/>
<path d="M131.613 80.2308L143.246 68.5981M131.613 68.5981L143.246 80.2308" stroke="white" stroke-width="2.91318" stroke-linecap="round"/>
<path d="M131.613 59.3409L143.246 47.7083M131.613 47.7083L143.246 59.3409" stroke="white" stroke-width="2.91318" stroke-linecap="round"/>
<path d="M11.7227 247.346L30.1027 228.966M11.7227 228.966L30.1027 247.346" stroke="white" stroke-width="4.60292" stroke-linecap="round"/>
<path d="M360.661 221.114H336.197V245.578H360.661V221.114Z" fill="#214776"/>
<path d="M357.9 218.352H333.436V242.816H357.9V218.352Z" fill="#EE8787"/>
<path d="M349.98 173.778C352.813 173.778 355.53 174.903 357.533 176.906C359.536 178.909 360.661 181.626 360.661 184.459C360.661 187.292 359.536 190.008 357.533 192.011C355.53 194.015 352.813 195.14 349.98 195.14L349.98 184.459L349.98 173.778Z" fill="#419BB4"/>
<circle cx="222.542" cy="21.9184" r="4.60292" fill="#F24836"/>
<circle cx="242.796" cy="21.9184" r="4.60292" fill="#F24836"/>
<circle cx="263.048" cy="21.9184" r="4.60292" fill="#F24836"/>
<circle cx="51.3803" cy="271.743" r="4.60292" transform="rotate(-90 51.3803 271.743)" fill="#69748F"/>
<circle cx="51.3803" cy="251.49" r="4.60292" transform="rotate(-90 51.3803 251.49)" fill="#69748F"/>
<circle cx="51.3803" cy="231.237" r="4.60292" transform="rotate(-90 51.3803 231.237)" fill="#69748F"/>
<rect x="198.131" y="298.848" width="20.7152" height="20.7152" stroke="white" stroke-width="3.06608" stroke-dasharray="11.04 11.04"/>
<rect x="168.102" y="298.848" width="20.7152" height="20.7152" stroke="white" stroke-width="3.06608" stroke-dasharray="11.04 11.04"/>
<path d="M114.57 297.622L100.338 322.273H128.802L114.57 297.622Z" fill="#EE8787"/>
<path d="M114.569 306.156L107.354 318.654H121.785L114.569 306.156Z" fill="#181B23"/>
<path d="M109.226 13.384L94.9941 38.0343H123.458L109.226 13.384Z" fill="#EE8787"/>
<path d="M109.225 21.9182L102.01 34.4158H116.441L109.225 21.9182Z" fill="#181B23"/>
<path d="M211.778 65.4683H176.486C171.785 65.4683 167.975 69.2776 167.975 73.9766C167.975 78.6757 171.785 82.485 176.486 82.485H211.778C216.478 82.485 220.289 78.6757 220.289 73.9766C220.289 69.2776 216.478 65.4683 211.778 65.4683Z" fill="#419BB4"/>
<mask id="path-88-inside-1_1252_13782" fill="white">
<path d="M198.052 330.607C198.052 338.201 201.069 345.485 206.439 350.856C211.809 356.226 219.093 359.243 226.688 359.243C234.283 359.243 241.567 356.226 246.937 350.856C252.307 345.485 255.324 338.202 255.324 330.607L226.688 330.607L198.052 330.607Z"/>
</mask>
<path d="M198.052 330.607C198.052 338.201 201.069 345.485 206.439 350.856C211.809 356.226 219.093 359.243 226.688 359.243C234.283 359.243 241.567 356.226 246.937 350.856C252.307 345.485 255.324 338.202 255.324 330.607L226.688 330.607L198.052 330.607Z" stroke="#69748F" stroke-width="6.13215" mask="url(#path-88-inside-1_1252_13782)"/>
<mask id="mask2_1252_13782" style="mask-type:alpha" maskUnits="userSpaceOnUse" x="198" y="330" width="58" height="30">
<path d="M198.052 330.607C198.052 338.201 201.069 345.485 206.439 350.856C211.809 356.226 219.093 359.243 226.688 359.243C234.283 359.243 241.567 356.226 246.937 350.856C252.307 345.485 255.324 338.202 255.324 330.607L226.688 330.607L198.052 330.607Z" fill="#D9D9D9"/>
</mask>
<g mask="url(#mask2_1252_13782)">
<line x1="275.773" y1="336.896" x2="225.198" y2="387.471" stroke="#69748F" stroke-width="3.06608"/>
<line x1="270.953" y1="332.077" x2="220.378" y2="382.652" stroke="#69748F" stroke-width="3.06608"/>
<line x1="266.135" y1="327.259" x2="215.56" y2="377.834" stroke="#69748F" stroke-width="3.06608"/>
<line x1="261.316" y1="322.44" x2="210.741" y2="373.015" stroke="#69748F" stroke-width="3.06608"/>
<line x1="256.498" y1="317.621" x2="205.923" y2="368.197" stroke="#69748F" stroke-width="3.06608"/>
<line x1="251.68" y1="312.803" x2="201.104" y2="363.378" stroke="#69748F" stroke-width="3.06608"/>
<line x1="246.861" y1="307.984" x2="196.286" y2="358.56" stroke="#69748F" stroke-width="3.06608"/>
<line x1="242.043" y1="303.166" x2="191.468" y2="353.741" stroke="#69748F" stroke-width="3.06608"/>
<line x1="237.225" y1="298.347" x2="186.649" y2="348.922" stroke="#69748F" stroke-width="3.06608"/>
<line x1="232.406" y1="293.529" x2="181.831" y2="344.104" stroke="#69748F" stroke-width="3.06608"/>
</g>
<path d="M67.6664 61.8499H54.1162L44.5352 71.4309V84.9811L54.1162 94.5621H67.6664L77.2474 84.9811V71.4309L67.6664 61.8499Z" fill="#214776"/>
<path d="M64.9828 59.166H51.4326L41.8516 68.7471V82.2972L51.4326 91.8783H64.9828L74.5638 82.2972V68.7471L64.9828 59.166Z" fill="#EE8787"/>
<defs>
<linearGradient id="paint0_linear_1252_13782" x1="50.5048" y1="187.778" x2="50.5048" y2="121.54" gradientUnits="userSpaceOnUse">
<stop stop-color="#EE8787"/>
<stop offset="1" stop-color="#419BB4"/>
</linearGradient>
</defs>
</svg>
