<svg width="48" height="49" viewBox="0 0 48 49" fill="none" xmlns="http://www.w3.org/2000/svg">
<path d="M40.634 8.91176C37.5747 7.508 34.294 6.47377 30.8638 5.88142C30.8013 5.86999 30.7389 5.89856 30.7067 5.9557C30.2848 6.70613 29.8175 7.68513 29.4902 8.45461C25.8008 7.90228 22.1304 7.90228 18.5166 8.45461C18.1893 7.66802 17.705 6.70613 17.2811 5.9557C17.249 5.90047 17.1866 5.8719 17.1241 5.88142C13.6958 6.47188 10.4151 7.50611 7.35387 8.91176C7.32737 8.92319 7.30465 8.94225 7.28958 8.967C1.06678 18.2637 -0.6379 27.3319 0.19836 36.2877C0.202144 36.3315 0.22674 36.3734 0.260796 36.4001C4.36642 39.4152 8.34341 41.2456 12.2466 42.4588C12.309 42.4779 12.3752 42.455 12.415 42.4036C13.3383 41.1428 14.1613 39.8133 14.867 38.4152C14.9086 38.3333 14.8688 38.2362 14.7837 38.2038C13.4783 37.7086 12.2352 37.1048 11.0395 36.4191C10.9449 36.3639 10.9373 36.2286 11.0243 36.1639C11.2759 35.9753 11.5276 35.7791 11.7679 35.581C11.8114 35.5449 11.872 35.5372 11.9231 35.5601C19.7786 39.1466 28.2831 39.1466 36.0459 35.5601C36.097 35.5353 36.1576 35.543 36.203 35.5791C36.4433 35.7772 36.6949 35.9753 36.9484 36.1639C37.0354 36.2286 37.0298 36.3639 36.9352 36.4191C35.7394 37.1181 34.4964 37.7086 33.189 38.2019C33.1039 38.2343 33.0661 38.3333 33.1077 38.4152C33.8285 39.8113 34.6515 41.1408 35.5578 42.4017C35.5957 42.455 35.6637 42.4779 35.7262 42.4588C39.6483 41.2456 43.6252 39.4152 47.7309 36.4001C47.7668 36.3734 47.7895 36.3334 47.7933 36.2896C48.7942 25.9357 46.117 16.9419 40.6964 8.96889C40.6832 8.94225 40.6605 8.92319 40.634 8.91176ZM16.04 30.8346C13.675 30.8346 11.7263 28.6633 11.7263 25.9967C11.7263 23.3302 13.6372 21.1589 16.04 21.1589C18.4617 21.1589 20.3916 23.3492 20.3538 25.9967C20.3538 28.6633 18.4428 30.8346 16.04 30.8346ZM31.9895 30.8346C29.6245 30.8346 27.6758 28.6633 27.6758 25.9967C27.6758 23.3302 29.5867 21.1589 31.9895 21.1589C34.4113 21.1589 36.3411 23.3492 36.3033 25.9967C36.3033 28.6633 34.4113 30.8346 31.9895 30.8346Z" fill="#8A94AC"/>
</svg>
