<svg width="48" height="49" viewBox="0 0 48 49" fill="none" xmlns="http://www.w3.org/2000/svg">
<g clip-path="url(#clip0_1125_1186)">
<path fill-rule="evenodd" clip-rule="evenodd" d="M24.0199 0.600586C10.7375 0.600586 0 11.4172 0 24.7989C0 35.4956 6.87988 44.5501 16.4241 47.7548C17.6174 47.9957 18.0545 47.2341 18.0545 46.5935C18.0545 46.0325 18.0151 44.1096 18.0151 42.1061C11.3334 43.5486 9.94198 39.2215 9.94198 39.2215C8.86818 36.417 7.27715 35.6962 7.27715 35.6962C5.09022 34.2138 7.43645 34.2138 7.43645 34.2138C9.86233 34.3741 11.1353 36.6977 11.1353 36.6977C13.2824 40.3833 16.7422 39.3419 18.1341 38.7008C18.3328 37.1383 18.9695 36.0566 19.6455 35.4558C14.3163 34.8948 8.70937 32.8116 8.70937 23.5167C8.70937 20.8725 9.66321 18.7091 11.1746 17.0267C10.9361 16.4258 10.1008 13.9415 11.4135 10.6163C11.4135 10.6163 13.4417 9.97518 18.0146 13.1002C19.9725 12.5705 21.9916 12.3011 24.0199 12.2988C26.048 12.2988 28.1154 12.5795 30.0246 13.1002C34.5981 9.97518 36.6262 10.6163 36.6262 10.6163C37.9389 13.9415 37.1031 16.4258 36.8646 17.0267C38.4158 18.7091 39.3303 20.8725 39.3303 23.5167C39.3303 32.8116 33.7234 34.8545 28.3544 35.4558C29.2296 36.2169 29.9848 37.6589 29.9848 39.9427C29.9848 43.1877 29.9454 45.7921 29.9454 46.593C29.9454 47.2341 30.383 47.9957 31.5758 47.7553C41.12 44.5496 47.9999 35.4956 47.9999 24.7989C48.0392 11.4172 37.2624 0.600586 24.0199 0.600586Z" fill="#8A94AC"/>
</g>
<defs>
<clipPath id="clip0_1125_1186">
<rect width="48" height="48" fill="white" transform="translate(0 0.600586)"/>
</clipPath>
</defs>
</svg>
