<svg width="48" height="49" viewBox="0 0 48 49" fill="none" xmlns="http://www.w3.org/2000/svg">
<g clip-path="url(#clip0_1125_1194)">
<path d="M44.4567 0.600586H3.54333C2.60358 0.600586 1.70232 0.973901 1.03782 1.6384C0.373315 2.30291 0 3.20417 0 4.14392V45.0573C0 45.997 0.373315 46.8983 1.03782 47.5628C1.70232 48.2273 2.60358 48.6006 3.54333 48.6006H44.4567C45.3964 48.6006 46.2977 48.2273 46.9622 47.5628C47.6267 46.8983 48 45.997 48 45.0573V4.14392C48 3.20417 47.6267 2.30291 46.9622 1.6384C46.2977 0.973901 45.3964 0.600586 44.4567 0.600586ZM14.3067 41.4906H7.09V18.5673H14.3067V41.4906ZM10.6933 15.3906C9.87473 15.386 9.07583 15.139 8.39747 14.6808C7.71911 14.2225 7.19168 13.5736 6.88175 12.816C6.57183 12.0583 6.4933 11.2258 6.65606 10.4235C6.81883 9.62122 7.2156 8.88514 7.79631 8.30815C8.37702 7.73116 9.11563 7.33912 9.91893 7.18151C10.7222 7.02389 11.5542 7.10777 12.3099 7.42256C13.0656 7.73734 13.7111 8.26892 14.1649 8.95021C14.6188 9.6315 14.8606 10.432 14.86 11.2506C14.8677 11.7987 14.765 12.3427 14.558 12.8502C14.351 13.3577 14.044 13.8184 13.6551 14.2047C13.2663 14.5911 12.8037 14.8952 12.2948 15.0989C11.786 15.3026 11.2413 15.4018 10.6933 15.3906ZM40.9067 41.5106H33.6933V28.9873C33.6933 25.2939 32.1233 24.1539 30.0967 24.1539C27.9567 24.1539 25.8567 25.7673 25.8567 29.0806V41.5106H18.64V18.5839H25.58V21.7606H25.6733C26.37 20.3506 28.81 17.9406 32.5333 17.9406C36.56 17.9406 40.91 20.3306 40.91 27.3306L40.9067 41.5106Z" fill="#8A94AC"/>
</g>
<defs>
<clipPath id="clip0_1125_1194">
<rect width="48" height="48" fill="white" transform="translate(0 0.600586)"/>
</clipPath>
</defs>
</svg>
