<svg width="66" height="66" viewBox="0 0 66 66" fill="none" xmlns="http://www.w3.org/2000/svg">
<path d="M33.0115 14.6733C33.0115 20.2844 28.4628 24.8331 22.8516 24.8331C17.2405 24.8331 12.6918 20.2844 12.6918 14.6733C12.6918 9.06214 17.2405 4.51343 22.8516 4.51343C28.4628 4.51343 33.0115 9.06214 33.0115 14.6733Z" fill="#F24836"/>
<path d="M12.6918 32.961C5.95846 32.961 0.5 38.4194 0.5 45.1528V61.4085H33.0115V32.961H12.6918Z" fill="#F24836"/>
<path d="M53.3311 32.961H41.1393V61.4085H65.5229V45.1528C65.5229 38.4194 60.0645 32.961 53.3311 32.961Z" fill="#F24836"/>
<path d="M49.2672 24.8331C53.7561 24.8331 57.3951 21.1941 57.3951 16.7052C57.3951 12.2163 53.7561 8.57736 49.2672 8.57736C44.7783 8.57736 41.1393 12.2163 41.1393 16.7052C41.1393 21.1941 44.7783 24.8331 49.2672 24.8331Z" fill="#F24836"/>
</svg>
